<!DOCTYPE svg PUBLIC "-//W3C//DTD SVG 1.1//EN" "http://www.w3.org/Graphics/SVG/1.1/DTD/svg11.dtd">
<!-- Uploaded to: SVG Repo, www.svgrepo.com, Transformed by: SVG Repo Mixer Tools -->
<svg fill="#3B2E27" width="800px" height="800px" viewBox="0 0 32 32" version="1.1" xmlns="http://www.w3.org/2000/svg">
<g id="SVGRepo_bgCarrier" stroke-width="0"/>
<g id="SVGRepo_tracerCarrier" stroke-linecap="round" stroke-linejoin="round"/>
<g id="SVGRepo_iconCarrier"> <title>hand-holding-bowl</title> <path d="M29.287 19.252c-0.486-0.206-1.052-0.326-1.646-0.326-0.65 0-1.267 0.144-1.82 0.402l0.027-0.011-5.121 2.301c-0.32-1.36-1.523-2.356-2.959-2.356-0.058 0-0.115 0.002-0.172 0.005l0.008-0h-3.711l-4.691-1.375c-0.104-0.032-0.225-0.051-0.349-0.051-0.001 0-0.002 0-0.003 0h-1.669v-0.257c0-0.69-0.56-1.25-1.25-1.25v0h-3.883c-0.69 0-1.25 0.56-1.25 1.25v0 12.208c0 0.69 0.56 1.25 1.25 1.25h3.883c0.69-0 1.25-0.56 1.25-1.25v-0.44c1.596 0.316 2.993 0.738 4.33 1.278l-0.159-0.057c1.209 0.432 2.603 0.682 4.056 0.682 1.676 0 3.274-0.332 4.732-0.934l-0.082 0.030c1.271-0.563 2.351-1.16 3.372-1.839l-0.083 0.052c0.334-0.207 0.668-0.412 1.004-0.611 1.648-0.977 2.973-1.832 4.17-2.699 0.595-0.424 1.115-0.843 1.608-1.29l-0.014 0.013c0.428-0.353 0.769-0.795 0.997-1.3l0.009-0.023c0.052-0.133 0.082-0.287 0.082-0.448 0-0.093-0.010-0.184-0.029-0.271l0.002 0.008c-0.176-1.17-0.885-2.144-1.868-2.68l-0.019-0.010zM4.681 28.541h-1.383v-9.709h1.383zM28.379 22.174c-0.398 0.356-0.831 0.702-1.283 1.024l-0.046 0.031c-1.131 0.818-2.395 1.635-3.975 2.57-0.352 0.209-0.697 0.424-1.045 0.639-0.833 0.557-1.791 1.091-2.793 1.547l-0.129 0.052c-1.096 0.451-2.369 0.712-3.703 0.712-1.137 0-2.229-0.19-3.247-0.54l0.070 0.021c-1.451-0.607-3.148-1.097-4.911-1.392l-0.137-0.019v-6.48h1.489l4.691 1.375c0.105 0.032 0.226 0.051 0.351 0.051h3.891c0.443 0 0.697 0.17 0.697 0.469s-0.254 0.469-0.697 0.469h-6.809c-0.69 0-1.25 0.56-1.25 1.25s0.56 1.25 1.25 1.25v0h7.781c0 0 0 0 0.001 0 0.185 0 0.361-0.040 0.519-0.113l-0.008 0.003 7.803-3.504c0.228-0.105 0.494-0.167 0.774-0.167 0.183 0 0.359 0.026 0.526 0.075l-0.013-0.003c0.185 0.113 0.326 0.282 0.4 0.484l0.002 0.007c-0.066 0.064-0.137 0.129-0.201 0.189zM11.351 13.958v1.142c0 0.69 0.56 1.25 1.25 1.25v0h8.8c0.69-0 1.25-0.56 1.25-1.25v-1.142c3.942-1.934 6.608-5.919 6.608-10.526 0-0.152-0.003-0.303-0.009-0.454l0.001 0.022c-0-0.69-0.56-1.25-1.25-1.25h-21.999c-0.69 0-1.25 0.56-1.25 1.25v0c-0.005 0.129-0.008 0.281-0.008 0.433 0 4.607 2.666 8.591 6.539 10.494l0.069 0.030zM26.688 4.25c-0.248 3.552-2.533 6.514-5.685 7.743l-0.061 0.021-0.013 0.009c-0.096 0.047-0.178 0.101-0.252 0.164l0.002-0.002c-0.060 0.035-0.112 0.070-0.161 0.108l0.003-0.002c-0.029 0.037-0.059 0.079-0.085 0.123l-0.003 0.006c-0.068 0.077-0.128 0.164-0.176 0.258l-0.003 0.007c-0.010 0.035-0.020 0.080-0.028 0.126l-0.001 0.008c-0.037 0.101-0.062 0.218-0.069 0.34l-0 0.003-0.003 0.015v0.673h-6.3v-0.673l-0.003-0.014c-0.008-0.121-0.032-0.233-0.069-0.339l0.003 0.009c-0.009-0.058-0.021-0.108-0.035-0.157l0.002 0.009c-0.041-0.075-0.085-0.139-0.134-0.199l0.002 0.002c-0.042-0.075-0.087-0.14-0.137-0.2l0.002 0.002c-0.037-0.029-0.078-0.057-0.122-0.083l-0.006-0.003c-0.081-0.070-0.174-0.131-0.274-0.179l-0.007-0.003-0.013-0.008c-3.212-1.25-5.497-4.212-5.744-7.735l-0.002-0.028z"/> </g>
</svg>